# xmcd
#
# Track frame offsets: 
#        150
#        24028
#        46705
#        61840
#        75990
#        90770
#        106148
#        123993
#        140223
#        154890
#        177923
#        212335
#        232653
#        251935
#        270220
#        298445
#        316793
#        334820
#
# Disc length: 4713 seconds
#
# Revision: 12
# Processed by: cddbd v1.5.2PL0 Copyright (c) Steve Scherf et al.
# Submitted via: ExactAudioCopyFreeDBPlugin 1.0
#
DISCID=e1126712
DTITLE=James Brown - 40th Anniversary Collection  CD 2
DYEAR=1996
DGENRE=Soul
TTITLE0=Get up (I feel like being a) sex machine
TTITLE1=Super bad
TTITLE2=Soul power
TTITLE3=Hot pants
TTITLE4=Make it funky
TTITLE5=Talkin' loud and sayin' nothing
TTITLE6=King heroin
TTITLE7=Get on the good foot
TTITLE8=The boss
TTITLE9=Doing it to death
TTITLE10=The payback
TTITLE11=Papa don't take no mess (live)
TTITLE12=My thang
TTITLE13=Funky President (people it's bad)
TTITLE14=Get up offa that thing
TTITLE15=Bodyheat
TTITLE16=It's too funky in here
TTITLE17=Living in America
EXTD=YEAR: 1996
EXTT0=
EXTT1=
EXTT2=
EXTT3=
EXTT4=
EXTT5=
EXTT6=
EXTT7=
EXTT8=
EXTT9=
EXTT10=
EXTT11=
EXTT12=
EXTT13=
EXTT14=
EXTT15=
EXTT16=
EXTT17=
PLAYORDER=
